<?xml version="1.0" standalone="no"?>
<!DOCTYPE svg PUBLIC "-//W3C//DTD SVG 20010904//EN"
 "http://www.w3.org/TR/2001/REC-SVG-20010904/DTD/svg10.dtd">
<svg version="1.0" xmlns="http://www.w3.org/2000/svg"
 width="512.000000pt" height="512.000000pt" viewBox="0 0 512.000000 512.000000"
 preserveAspectRatio="xMidYMid meet">
<metadata>
Created by potrace 1.14, written by Peter Selinger 2001-2017
</metadata>
<g transform="translate(0.000000,512.000000) scale(0.100000,-0.100000)"
fill="#000000" stroke="none">
<path d="M2430 5113 c-608 -35 -1207 -333 -1592 -792 -276 -330 -449 -713
-515 -1141 -24 -159 -24 -491 0 -647 82 -515 301 -941 668 -1298 63 -61 158
-143 212 -184 l97 -72 0 -288 c0 -159 5 -312 10 -342 43 -224 251 -373 472
-338 59 10 142 43 182 74 18 14 17 16 -21 58 -51 55 -91 137 -103 213 -6 32
-10 167 -10 300 l0 241 -31 61 c-25 51 -48 76 -132 145 -443 364 -732 877
-813 1442 -25 179 -24 471 4 642 37 226 82 384 163 569 111 253 243 453 434
654 339 359 768 591 1249 676 43 7 81 15 83 17 4 5 -211 17 -262 15 -22 -1
-65 -3 -95 -5z"/>
<path d="M1670 2890 c-141 -18 -254 -73 -355 -175 -139 -139 -200 -334 -164
-531 16 -89 87 -229 151 -296 114 -118 242 -176 408 -185 299 -16 553 180 615
474 29 134 11 256 -55 391 -109 220 -355 352 -600 322z"/>
<path d="M3315 2890 c-235 -27 -425 -180 -501 -405 -37 -108 -40 -255 -7 -360
58 -184 201 -332 383 -396 93 -33 274 -34 375 -2 254 80 429 340 412 610 -23
338 -326 591 -662 553z"/>
<path d="M2449 1692 c-139 -143 -186 -248 -142 -323 33 -56 81 -69 253 -69
133 0 159 3 195 20 122 59 92 190 -85 372 -52 54 -102 98 -110 98 -8 0 -58
-44 -111 -98z"/>
</g>
</svg>
